<?xml version="1.0" encoding="iso-8859-1"?>
<!-- Generator: Adobe Illustrator 25.3.1, SVG Export Plug-In . SVG Version: 6.00 Build 0)  -->
<svg version="1.1" id="Layer_1" xmlns="http://www.w3.org/2000/svg" xmlns:xlink="http://www.w3.org/1999/xlink"
	 viewBox="750 300 1500 1002" xml:space="preserve">
	 
	<path style="fill:#32cd32;"
		d="M1430.055,811.21v61.237c0,9.389,7.611,17,17,17h243.734c-1.645,15.017-5.478,29.686-11.455,43.789
		c-7.958,18.777-19.329,35.701-33.799,50.302c-14.495,14.626-31.307,26.12-49.969,34.162c-19.335,8.332-39.798,12.557-60.821,12.557
		h-87.69c-9.389,0-17,7.611-17,17v285.935c-14.964-1.645-29.543-5.473-43.524-11.44c-18.6-7.939-35.339-19.295-49.752-33.755
		c-29.687-29.782-46.037-69.168-46.037-110.904v-167.823C1305.976,918.758,1351.656,853.72,1430.055,811.21 M1447.055,783.865
		c-81.36,36.566-152.975,100.942-173.265,223.715c-0.017,0.1-0.031,0.203-0.047,0.303v169.211
		c0,95.714,78.221,174.025,173.313,174.025v-303.862h87.69c95.682,0,173.969-79.737,173.969-174.809h-261.658V783.865
		L1447.055,783.865z M1855.395,328.629c-4.07,28.284-14.307,57.913-30.472,87.069c-14.788,26.673-33.279,50.743-53.472,69.606
		c-19.047,17.793-38.814,29.954-55.661,34.242c-8.175,2.081-13.588,9.843-12.715,18.234c0.873,8.391,7.767,14.872,16.196,15.226
		c1.477,0.062,2.98,0.093,4.466,0.093c19.012,0,38.569-5.217,57.97-15.328c-26.183,33.74-66.664,73.515-115.417,80.07
		c-8.896,1.196-15.329,9.102-14.692,18.055c0.634,8.905,8.043,15.794,16.955,15.794c0.048,0,0.097,0,0.146-0.001
		c1.466-0.012,2.912-0.036,4.34-0.07c-30.044,15.454-77.044,33.498-145.766,44.79c-128.026,21.036-279.469,89.86-339.291,217.58
		c-11.038-174.503,23.867-296.324,105.909-371.009c82.291-74.913,202.599-93.91,308.747-110.67
		C1709.034,415.509,1810.985,399.411,1855.395,328.629 M1861.686,235.638l-0.039,3.92
		c-1.327,134.854-121.969,153.902-261.662,175.959c-108.503,17.132-231.483,36.55-317.539,114.891
		c-98.967,90.092-132.682,243.593-103.075,469.276l0.785,5.981l0.737-5.987c21.24-172.61,201.352-262.212,349.136-286.495
		c83.935-13.791,136.882-37.587,166.519-55.12c32.177-19.035,44.657-35.061,44.778-35.221l2.059-2.687l-3.017,1.538
		c-0.277,0.142-25.295,12.605-71.813,12.996c55.781-7.5,100.673-52.159,129.552-90.373c34.581-45.76,54.273-92.383,54.467-92.849
		l-1.349-0.713c-0.579,0.89-56.262,85.345-127.488,85.345c-1.247,0-2.497-0.026-3.754-0.078
		c40.387-10.281,87.87-54.476,119.807-112.08c35.743-64.469,44.25-131.773,23.336-184.658L1861.686,235.638L1861.686,235.638z" id="scale"/>
</svg>
